<?xml version="1.0" encoding="UTF-8"?>
<svg version="1.1" xmlns="http://www.w3.org/2000/svg" width="500" height="500">
<path d="M0 0 C24.20844922 -0.88702715 47.64550685 7.95944252 65.54296875 24.1328125 C77.40199637 35.32179785 84.76353601 49.56208989 92.61038208 63.65733337 C96.08955753 69.90359902 99.6621531 76.09457367 103.24609375 82.28125 C104.48718531 84.42956842 105.72807088 86.57800586 106.96875 88.7265625 C107.58121582 89.78649414 108.19368164 90.84642578 108.82470703 91.93847656 C111.9468398 97.34295645 115.06500579 102.74972412 118.18359375 108.15625 C119.43357497 110.3229275 120.68357496 112.48959417 121.93359375 114.65625 C144.43359375 153.65624999 144.43359375 153.65624999 146.30883789 156.90673828 C147.55794893 159.07182071 148.80713504 161.23685982 150.05639648 163.40185547 C153.19561684 168.84240706 156.33349938 174.28372216 159.46875 179.7265625 C165.49106704 190.17831199 171.53028712 200.61924548 177.62109375 211.03125 C183.38364245 220.88400792 189.06449569 230.78195744 194.70043945 240.70751953 C197.94168129 246.40825747 201.21919519 252.0819915 204.59765625 257.703125 C219.46647008 282.49346478 227.87816402 307.12062551 221.22265625 336.16796875 C217.66608526 350.31217801 211.16871814 363.05227024 201.68359375 374.15625 C201.25046875 374.73246094 200.81734375 375.30867188 200.37109375 375.90234375 C187.81018496 392.08946728 167.2544147 400.61993253 147.828125 404.765625 C128.79052649 407.13054407 109.94082666 404.62939589 92.68359375 396.15625 C91.88695312 395.76566406 91.0903125 395.37507813 90.26953125 394.97265625 C84.56833348 391.98491515 79.65226924 388.2232029 74.68359375 384.15625 C74.11125 383.73085938 73.53890625 383.30546875 72.94921875 382.8671875 C60.27894704 373.03264327 52.91602341 357.93900835 45.37939453 344.20166016 C42.61455441 339.23641171 39.70296027 334.35918933 36.80859375 329.46875 C31.3586437 320.20641855 26.213295 310.80000595 21.17404175 301.31030273 C14.88554979 289.46979238 8.36065159 277.78134502 1.68359375 266.15625 C1.23677246 265.37185547 0.78995117 264.58746094 0.32958984 263.77929688 C-21.6173571 225.28287385 -49.1593252 196.43717038 -92.82519531 183.8359375 C-112.13953073 178.56632658 -132.48154884 178.42569197 -152.31640625 180.15625 C-148.83924898 172.9559378 -145.00983096 166.03719189 -140.94140625 159.15625 C-139.69213103 157.02898476 -138.4434535 154.90136842 -137.1953125 152.7734375 C-136.55480957 151.68256836 -135.91430664 150.59169922 -135.25439453 149.46777344 C-132.10498412 144.08624121 -128.99121318 138.68429976 -125.87890625 133.28125 C-124.94618896 131.66283203 -124.94618896 131.66283203 -123.99462891 130.01171875 C-122.73208102 127.82074064 -121.46971137 125.62965981 -120.20751953 123.43847656 C-117.07960477 118.00965058 -113.94782177 112.58305719 -110.81640625 107.15625 C-109.56638746 104.98959417 -108.31638747 102.8229275 -107.06640625 100.65625 C-103.31640625 94.15625 -103.31640625 94.15625 -99.56640625 87.65625 C-98.94725342 86.58270264 -98.32810059 85.50915527 -97.69018555 84.40307617 C-96.44547651 82.24628327 -95.19955393 80.09019024 -93.95239258 77.93481445 C-91.07089893 72.95165846 -88.20083731 67.96324807 -85.37568665 62.94787598 C-71.7165298 38.7004764 -71.7165298 38.7004764 -63.31640625 29.15625 C-62.67960937 28.42148438 -62.0428125 27.68671875 -61.38671875 26.9296875 C-45.51521037 9.87275526 -22.79302362 1.53747208 0 0 Z " fill="#002444" transform="translate(240.31640625,40.84375)"/>
<path d="M0 0 C17.45328317 14.29278973 28.67528801 35.76602728 31.06567383 58.19702148 C32.44972582 84.00147394 26.47874476 106.56764874 9.44458008 126.59936523 C-4.94125529 142.30803604 -25.25106342 154.05933972 -46.82104492 155.37280273 C-60.38839741 155.9511917 -73.04271244 155.72610736 -85.93432617 151.19702148 C-87.00553711 150.82319336 -88.07674805 150.44936523 -89.18041992 150.06420898 C-109.07066625 142.41216517 -126.45472134 126.28321195 -135.93432617 107.19702148 C-145.62876185 84.82605173 -147.93728484 59.13801498 -139.13696289 36.1105957 C-130.13970523 13.50797728 -113.52841151 -3.03094532 -91.61401367 -13.36938477 C-60.43554088 -26.20082013 -26.18792998 -20.74460608 0 0 Z " fill="#002444" transform="translate(167.934326171875,290.802978515625)"/>
</svg>
